<?xml version="1.0" standalone="no"?><!DOCTYPE svg PUBLIC "-//W3C//DTD SVG 1.1//EN" "http://www.w3.org/Graphics/SVG/1.1/DTD/svg11.dtd"><svg t="1782352119572" class="icon" viewBox="0 0 1024 1024" version="1.1" xmlns="http://www.w3.org/2000/svg" p-id="1763" xmlns:xlink="http://www.w3.org/1999/xlink" width="200" height="200"><path d="M128 0h768q128 0 128 128v768q0 128-128 128H128Q0 1024 0 896V128Q0 0 128 0z" fill="#4D53E8" p-id="1764"></path><path d="M544.32 220.416a72.484 72.484 0 0 0-36.416 18.56L195.84 538.24a30.272 30.272 0 0 1-41.024 0.32 26.24 26.24 0 0 1-0.32-38.656L466.56 200.576c11.84-11.392 35.776-28.864 67.904-34.112 34.304-5.568 73.216 3.712 110.016 39.04 34.688 33.28 40.192 70.72 35.584 100.8a123.776 123.776 0 0 1 106.048 35.072c37.44 35.84 47.04 72.896 40.96 105.408-5.632 30.592-24.384 53.056-35.84 64L515.584 775.232l74.432 71.424a26.24 26.24 0 0 1-0.32 38.72 30.272 30.272 0 0 1-40.96-0.384l-94.464-90.56a26.24 26.24 0 0 1 0-38.4l295.68-283.648a69.12 69.12 0 0 0 20.096-35.072c2.56-13.376 0.384-32.96-25.216-57.6-22.656-21.696-45.312-22.272-64-17.728a105.216 105.216 0 0 0-32 13.824l-0.768 0.448L403.2 611.2a30.272 30.272 0 0 1-40.96 0.32 26.24 26.24 0 0 1-0.384-38.656l244.608-234.688 0.384-0.512c6.528-9.664 11.392-20.48 14.336-31.744 4.8-18.944 3.84-41.088-18.048-62.08-24.64-23.68-44.8-25.728-58.816-23.424z" fill="#FFFFFF" p-id="1765"></path><path d="M578.496 268.16a26.24 26.24 0 0 1 0.32 38.72L333.952 541.76a96.64 96.64 0 0 0-15.104 31.744c-4.864 18.368-4.096 40.576 18.624 62.4 22.656 21.76 45.44 22.272 64.128 17.728 11.584-2.88 22.656-7.68 32.64-14.336l244.864-234.88a30.272 30.272 0 0 1 40.96-0.32 26.24 26.24 0 0 1 0.448 38.656l-246.4 236.416a28.672 28.672 0 0 1-2.624 2.176l-0.128 0.064-0.128 0.128-0.32 0.256-0.96 0.704-3.328 2.24a165.248 165.248 0 0 1-50.688 22.016c-33.92 8.064-79.424 6.208-119.808-32.512-40.192-38.592-42.048-81.92-33.664-113.92a151.318 151.318 0 0 1 25.088-51.52l0.768-0.96 0.256-0.32 0.128-0.128 22.976 16.64-22.912-16.704a27.904 27.904 0 0 1 2.24-2.496l246.4-236.352a30.272 30.272 0 0 1 41.024-0.32z" fill="#FFFFFF" p-id="1766"></path></svg>